<svg width="500" height="500" viewBox="0 0 500 500" fill="none" xmlns="http://www.w3.org/2000/svg">
<path d="M209.924 129.582C209.74 128.519 211.81 128.243 210.557 127.271C209.713 126.628 209.147 127.6 208.685 128.23C208.079 129.07 207.63 128.69 206.932 128.256C204.994 127.048 203.28 125.577 201.553 124.081C195.753 119.038 189.926 114.022 184.771 108.323C184.191 107.68 181.91 106.537 183.677 104.712C183.875 104.502 183.69 103.977 183.281 103.872C179.88 103.045 179.682 99.9326 178.654 97.4245C178.087 96.0458 177.402 94.7721 176.611 93.4983C175.635 91.9358 173.816 90.7014 175.398 88.1409C176.835 85.8167 171.931 86.3945 172.629 83.742C173.091 81.9562 171.865 80.3279 171.759 78.5421C171.667 76.9401 172.01 76.5199 174.04 78.1744C173.144 76.8482 172.893 75.9947 172.379 75.7977C169.439 74.629 170.336 71.8584 170.876 70.3483C171.654 68.1686 170.27 66.8161 170.151 65.0697C170.098 64.1899 168.582 63.599 169.531 62.5354C170.85 61.0516 172.115 59.3183 174.185 58.9637C175.266 58.7799 175.965 59.8172 175.688 60.9465C175.371 62.2465 176.07 63.2444 176.914 63.6515C178.47 64.3868 179.036 65.91 179.089 67.0656C179.195 69.4423 179.709 71.7402 181.383 73.1584C182.899 74.4452 182.965 76.4149 184.639 77.6361C186.828 79.238 187.513 82.1663 188.858 84.5036C191.231 88.6005 193.274 92.7105 196.86 96.1508C199.892 99.0528 203.359 101.456 206.299 104.489C208.474 106.734 211.572 108.021 214.433 109.518C218.849 111.816 223.688 111.934 228.275 113.208C230.055 113.707 232.019 113.878 233.891 114.337C235.552 114.744 236.739 112.762 238.703 112.604C240.615 112.46 240.127 110.083 240.535 108.507C241.432 105.067 240.008 101.429 241.59 98.1599C242.908 95.4286 242.381 92.4479 243.067 89.6378C243.594 87.4712 245.413 89.4277 246.402 88.6267C246.362 87.7732 245.453 87.655 245.097 87.0641C244.754 86.4864 245.018 86.053 245.308 85.5935C245.624 85.0945 246.297 84.6874 246.639 84.9763C247.997 86.1187 249.948 86.749 250.172 88.9419C250.581 92.9337 251.029 96.9255 251.517 100.904C251.688 102.362 251.346 103.714 250.963 105.093C250.568 106.537 250.963 107.837 252.203 108.586C253.31 109.256 254.338 108.678 255.577 108.166C259.546 106.537 262.789 103.557 266.915 102.322C270.158 101.351 271.845 98.0942 275.009 96.9649C277.132 96.2033 278.991 95.1266 280.085 92.8287C280.559 91.8438 282.181 91.056 283.394 90.8459C287.48 90.1499 289.234 86.854 291.211 83.9783C292.543 82.035 293.11 79.2118 294.257 77.5179C295.68 75.4169 297.737 72.8826 300.69 71.7665C302.338 71.1362 304.487 70.1514 302.852 67.4332C302.549 66.9343 303.129 65.2141 303.59 65.0828C305.871 64.4525 305.462 62.7061 305.264 61.2879C304.882 58.6354 305.976 56.2325 306.583 53.8426C307.216 51.3477 308.995 49.1023 311.896 48.4458C313.688 48.0387 315.27 46.9751 317.235 47.0145C318.711 47.0407 320.109 46.6731 320.768 48.472C320.847 48.6821 321.282 48.9973 321.321 48.971C324.064 46.9357 325.026 50.8225 327.254 50.7306C328.744 50.6649 327.821 52.4901 328.467 52.9628C330.695 54.5911 331.064 57.0466 331.565 59.4102C331.842 60.6839 334.689 62.5354 331.024 63.5202C330.879 63.5596 328.322 66.6191 331.011 68.6413C331.776 69.2191 331.749 71.5564 330.22 72.8958C329.337 73.6705 328.849 74.6159 327.359 74.4321C326.792 74.3664 326.081 75.4432 327.148 76.2048C327.676 76.5724 328.243 76.9664 327.887 77.7017C327.491 78.5027 326.858 78.1744 326.305 77.8724C325.619 77.4916 324.881 77.2815 324.459 78.1219C323.932 79.1724 325.092 79.0411 325.487 79.4744C326.107 80.1572 327.109 81.1289 325.527 81.9824C324.657 82.4551 324.419 83.3218 324.248 84.2016C324.037 85.2914 323.642 86.0137 322.284 85.4753C320.913 84.9238 320.53 85.449 320.465 86.9591C320.359 89.2176 318.223 90.557 317.235 92.4873C316.681 93.5903 315.956 94.6801 315.521 95.8882C315.336 96.3872 315.205 97.3195 314.994 97.3195C312.884 97.4377 313.029 98.6457 313.372 100.143C313.478 100.602 313.003 101.338 312.357 100.957C310.63 99.9326 309.47 101.548 308.442 102.099C306.517 103.123 309.127 103.649 309.259 104.568C308.02 105.894 306.873 105.264 305.581 103.964C305.884 107.128 304.592 108.258 301.942 107.929C301.362 107.851 300.584 108.048 300.716 108.586C301.323 111.133 298.726 112.171 298.238 114.442C296.656 112.551 295.812 113.234 294.454 114.771C292.925 116.491 291.646 118.907 288.812 119.078C288.469 119.104 287.902 119.366 287.81 119.248C285.516 116.176 285.332 119.288 284.013 120.22C282.326 121.428 280.283 123.7 278.859 123.555C275.589 123.201 274.97 125.026 274.086 127.114C274.021 127.258 273.823 127.481 273.717 127.455C269.631 126.799 267.113 130.961 262.841 130.751C261.048 130.659 258.557 132.077 256.237 132.511C255.076 132.734 254.009 133.102 252.413 132.432C253.033 133.876 253.666 134.809 252.189 135.741C251.491 136.187 253.468 136.857 253.139 138.144C252.387 141.059 253.442 144.171 252.334 147.125C252.203 147.493 252.848 148.176 253.178 148.688C253.626 149.384 254.668 150.001 252.967 150.579C251.873 150.947 252.638 151.59 253.139 151.826C254.866 152.667 254.18 154.032 253.969 155.293C253.732 156.737 252.519 156.199 250.779 156.252C252.624 157.21 253.481 157.945 253.086 159.469C252.822 160.519 254.14 161.832 252.519 162.765C252.018 163.053 251.978 163.776 252.413 164.183C254.233 165.916 253.534 167.754 252.638 169.527C252.137 170.538 252.361 171.392 252.677 172.337C252.967 173.217 253.508 174.005 252.624 175.029C251.504 176.316 253.402 176.92 253.653 177.957C253.877 178.863 254.628 178.693 255.327 178.154C255.999 177.629 256.883 177.97 257.252 178.469C258.016 179.507 258.952 179.638 260.126 179.782C261.681 179.979 263.883 179.69 263.672 182.435C263.659 182.684 264.239 182.697 264.568 182.448C266.282 181.135 266.559 181.726 266.071 183.525C265.834 184.378 266.717 184.496 267.047 184.234C268.629 182.973 269.551 184.378 270.725 184.943C271.582 185.35 272.162 185.731 271.423 186.702C271.002 187.254 270.817 187.845 271.463 188.331C272.083 188.79 272.808 188.462 273.137 188.002C274.258 186.505 274.983 187.188 275.695 188.318C276.842 190.13 279.505 190.629 280.111 192.625C280.744 194.686 282.563 194.45 283.763 195.29C285.134 196.236 286.175 196.695 286.637 198.77C287.006 200.451 289.708 201.659 291.87 202.092C293.083 202.328 293.769 202.735 294.573 203.76C295.588 205.033 297.724 205.06 298.778 206.701C299.859 208.369 301.573 209.248 303.59 209.445C305.304 209.616 305.37 211.441 306.464 212.295C309.153 214.396 311.777 216.904 314.69 218.348C317.327 219.661 319.08 222.432 322.548 222.708C324.05 222.826 325.158 225.754 326.753 226.988C329.245 228.919 331.407 231.322 334.307 232.674C334.979 232.989 336.007 232.569 336.943 232.49C337.458 233.331 336.166 234.88 337.589 235.222C338.776 235.511 338.829 233.777 339.817 233.173C340.147 234.788 340.318 236.206 342.797 235.143C343.812 234.71 345.618 236.285 346.58 237.611C347.833 239.345 349.256 240.369 351.379 239.043C351.919 238.714 352.223 238.846 352.262 239.424C352.407 241.209 353.963 241.616 355.176 242.22C356.217 242.733 357.127 242.956 356.56 244.426C356.336 245.017 356.85 245.529 357.47 245.293C359.684 244.466 360.475 245.963 360.792 247.539C361.174 249.39 362.809 249.127 363.402 248.76C364.509 248.064 364.918 247.985 365.287 249.246C365.498 249.968 365.893 250.598 366.737 250.598C368.214 250.598 366.539 249.127 367.7 248.812C368.873 250.244 369.98 251.438 372.485 251.36C373.896 251.32 375.425 254.078 376.849 255.64C377.191 256.021 377.284 256.691 377.996 256.402C380.342 255.443 381.239 257.82 381.845 258.792C383.032 260.709 384.218 262.429 386.182 263.519C386.855 263.887 387.25 264.32 387.514 265.055C387.817 265.909 388.423 266.684 389.478 266.552C390.994 266.355 391.429 267.327 391.996 268.417C392.972 270.268 394.329 271.49 396.676 270.531C397.309 270.268 400.829 272.842 400.67 273.577C400.209 275.652 403.518 275.403 402.912 277.438C403.689 277.149 404.533 276.952 405.232 276.532C405.904 276.125 405.403 275.626 405.06 275.219C404.744 274.838 404.045 274.799 404.045 274.116C406.959 275.455 407.354 276.466 405.957 278.974C409.727 279.408 411.032 281.929 409.582 285.527C408.594 287.969 407.868 290.543 407.249 293.116C406.708 295.335 402.252 298.408 399.392 298.342C398.047 298.316 396.426 298.815 395.911 299.327C394.211 300.982 392.418 299.984 390.902 299.774C389.768 299.616 387.276 298.841 389.162 296.268C390.124 294.968 389.755 293.235 388.199 292.315C386.776 291.475 385.075 291.462 384.126 292.906C383.506 293.839 380.079 294.141 382.979 296.373C383.519 296.78 382.86 297.436 382.293 297.358C381.357 297.213 380.461 298.553 379.327 296.898C378.457 295.624 377.336 293.418 374.805 294.219C373.685 294.574 373.711 293.655 373.382 292.88C372.881 291.724 373.975 289.072 370.969 289.873C370.85 289.899 370.574 289.755 370.521 289.637C369.387 286.498 365.814 286.314 363.89 284.24C362.018 282.231 359.236 280.905 358.564 277.884C358.392 277.136 357.918 276.808 357.206 277.359C355.874 278.383 354.991 278.003 353.726 276.939C352.71 276.085 351.089 275.967 351.432 273.906C349.507 275.179 348.044 275.206 346.29 273.998C344.431 272.711 342.256 271.844 340.173 270.899C339.395 270.544 338.75 270.19 338.552 269.31C338.288 268.154 337.326 267.879 336.377 267.642C334.267 267.117 334.267 267.13 334.228 265.016C332.567 266.946 331.459 265.922 330.853 264.267C330.167 262.39 330.115 260.157 327.188 260.394C326.7 260.433 326.199 259.895 326.133 259.317C325.988 258.017 325.593 257.689 324.235 258.28C323.299 258.687 322.205 258.359 323.022 256.822C323.813 255.338 322.956 254.511 321.717 255.089C319.858 255.942 318.632 255.036 317.419 254.157C315.666 252.883 313.227 252.226 312.871 249.548C312.818 249.114 312.7 248.707 312.093 248.681C308.27 248.536 306.781 245.083 304.342 243.048C303.116 242.023 302.391 240.435 300.637 239.87C299.411 239.476 298.422 238.347 298.027 237.336C297.434 235.786 296.946 235.405 295.14 235.3C293.334 235.195 292.859 232.674 291.923 231.138C291.62 230.652 291.712 229.877 291.053 229.602C288.72 228.577 287.415 226.279 285.371 224.966C282.3 222.997 281.509 219.11 278.411 217.219C277.975 216.956 278.411 216.418 278.582 216.037C279.056 215.013 278.621 214.173 277.765 213.792C273.836 212.085 272.122 208.316 269.551 205.322C268.115 203.655 267.389 201.764 266.453 199.899C265.794 198.586 264.054 197.128 262.881 195.632C261.76 194.187 261.22 192.467 260.455 190.957C259.282 188.646 257.594 186.19 255.34 184.444C254.826 184.05 254.22 184.011 253.995 184.588C253.705 185.337 252.387 185.402 252.888 186.716C253.982 189.526 254.22 192.546 254.009 195.513C253.666 200.398 254.734 205.375 253.059 210.154C252.769 210.982 253.297 211.454 253.442 212.098C253.785 213.674 255.986 215.276 253.56 216.93C253.442 217.009 253.363 217.35 253.415 217.416C255.92 220.016 253.916 223.233 254.602 226.122C255.353 229.26 254.365 232.582 255.287 235.786C255.551 236.732 254.839 237.467 253.653 237.27C253.152 237.191 252.532 236.863 252.295 237.598C252.044 238.36 252.651 238.609 253.218 238.964C255.235 240.264 256.869 244.111 256.382 246.225C256.223 246.921 255.38 247.801 256.738 248.116C257.845 248.366 258.939 248.261 259.19 246.816C259.255 246.422 259.137 245.989 259.097 245.451C259.941 245.937 260.982 246.081 261.246 247C261.655 248.405 262.723 248.129 263.593 247.972C267.047 247.328 269.855 249.534 269.565 252.752C271.718 252.209 272.909 253.259 273.137 255.903C275.299 253.198 276.776 255.26 278.068 256.546C280.072 258.529 283.025 259.645 284 262.626C284.053 262.771 284.303 263.007 284.356 262.981C286.861 261.746 287.968 264.241 289.115 265.292C290.605 266.644 292.055 268.338 293.162 270.071C294.177 271.66 295.812 271.975 297.104 272.895C298.989 274.247 300.822 275.56 302.285 277.372C305.33 281.167 309.272 283.951 313.095 286.866C316.272 289.282 319.594 291.528 322.745 293.97C324.209 295.099 325.606 296.517 322.693 297.699C322.152 297.922 322.244 298.29 322.6 298.382C323.734 298.684 322.851 300.798 324.512 300.47C325.237 300.325 324.934 299.656 324.907 299.143C324.815 297.502 325.105 297.029 326.766 298.159C330.602 300.759 334.267 303.674 337.102 307.206C339.369 310.042 341.861 312.826 343.733 315.872C345.354 318.512 347.253 320.495 349.691 322.136C350.799 322.884 351.194 324.092 351.906 325.09C353.488 327.349 354.912 329.713 358.168 329.739C358.485 329.739 358.761 330.382 359.131 330.566C360.897 331.498 362.176 333.166 364.786 332.536C367.067 331.984 367.436 334.453 367.871 336.961C369.295 333.626 371.417 334.282 373.316 335.188C376.255 336.58 379.129 336.843 382.148 335.569C386.037 333.928 389.794 333.783 393.842 335.569C396.505 336.751 399.524 337.499 402.648 336.921C404.784 336.528 408.58 339.561 408.844 341.662C408.87 341.832 408.818 342.003 408.804 342.187C411.902 341.636 411.388 347.374 415.646 345.365C414.157 347.597 415.501 348.713 416.754 348.963C418.599 349.33 417.281 349.842 416.991 350.223C416.437 350.945 415.001 351.458 415.897 352.534C416.912 353.742 417.242 351.418 418.296 351.773C418.982 352.849 418.138 353.27 417.439 353.834C416.741 354.386 416.437 355.751 417.347 355.607C420.142 355.16 418.626 356.342 418.27 357.34C417.98 358.154 418.099 359.1 417.835 359.927C417.571 360.767 417.743 362.396 415.937 361.411C415.396 361.122 414.856 361.319 414.645 361.923C414.42 362.553 414.935 362.868 415.37 363.184C417.624 364.877 417.624 365.403 415.093 366.755C414.104 367.294 414.895 368.383 414.275 368.817C410.294 371.653 407.486 376.525 401.356 375.606C399.589 375.343 397.994 374.608 396.781 373.82C393.644 371.798 390.322 370.891 386.749 370.156C385.325 369.867 384.574 367.701 382.966 366.86C382.069 366.401 381.555 365.481 380.21 365.836C379.129 366.112 378.207 365.061 377.521 364.352C374.093 360.846 370.837 357.17 369.255 352.39C369.005 351.628 368.596 351.169 367.976 351.497C366.17 352.456 365.472 350.998 364.443 350.118C361.016 347.229 357.601 344.314 354.055 341.583C352.948 340.743 352.434 338.668 350.206 339.351C349.995 339.416 347.543 337.959 347.833 336.055C348.004 334.991 347.371 334.663 346.514 334.427C345.578 334.177 344.682 333.888 345.829 332.72C346.633 331.905 345.868 331.617 345.222 331.603C343.799 331.564 343.06 330.474 342.098 329.739C341.149 329.017 340.16 328.386 341.597 327.099C342.019 326.719 342.375 325.826 341.848 325.143C341.399 324.552 340.767 324.802 340.134 324.907C338.275 325.182 335.282 323.213 334.584 321.361C333.344 318.105 329.983 316.358 328.664 313.167C324.301 313.246 322.231 309.281 319.028 307.39C315.745 305.446 311.685 304.409 309.233 301.389C307.15 298.828 304.46 297.712 301.665 296.491C301.033 296.215 300.294 295.795 299.978 295.23C299.055 293.576 298.251 292.066 295.944 291.987C295.179 291.961 293.716 291.357 294.639 289.781C294.955 289.243 294.547 288.468 294.006 288.639C290.869 289.637 289.906 286.538 288.469 285.251C284.396 281.64 281.074 277.202 277.277 273.262C276.367 272.317 275.827 271.818 277.25 270.426C275.444 271.7 274.416 271.647 274.034 269.809C273.651 267.944 271.068 267.576 271.094 265.449C267.337 265.843 266.229 262.127 263.672 260.683C261.062 259.212 259.981 256.77 259.097 254.157C258.834 253.395 258.399 252.108 257.792 252.66C257.12 253.277 255.248 253.369 255.933 255.141C256.21 255.864 256.25 256.691 256.434 257.452C257.014 259.777 256.329 260.591 254.075 260.105C254.193 261.326 255.538 261.26 256.065 262.048C256.118 262.81 255.393 262.705 254.984 262.954C254.496 263.27 254.14 263.677 254.444 264.254C254.668 264.688 255.182 264.74 255.63 264.635C256.171 264.504 256.777 263.768 257.159 264.74C257.502 265.594 256.579 265.751 256.144 266.04C255.327 266.592 254.773 266.946 256.026 267.642C256.316 267.8 256.553 268.43 256.487 268.785C255.973 271.45 257.344 273.945 257.093 276.624C256.922 278.396 256.593 280.195 256.118 281.811C255.511 283.925 255.736 285.658 256.276 287.654C256.764 289.492 257.265 291.593 255.221 293.077C254.483 293.615 254.417 294.429 255.156 294.823C256.83 295.729 256.487 296.951 255.841 298.159C254.984 299.748 255.419 301.021 255.841 302.728C256.355 304.829 255.683 307.311 255.762 309.661C255.802 310.725 255.525 311.474 256.658 311.959C257.014 312.117 257.278 312.59 257.041 312.813C255.498 314.244 256.131 316.135 255.92 317.842C255.67 319.877 254.8 317.79 254.18 318.144C254.299 318.63 254.285 319.47 254.549 319.575C257.37 320.665 256.382 322.701 255.696 324.434C255.116 325.918 256.223 326.43 256.738 327.415C257.542 328.951 255.525 332.628 253.626 333.494C253.587 334.492 257.238 334.558 254.47 336.278C256.171 337.512 254.707 339.377 255.353 340.782C256.909 344.17 256.553 347.61 255.591 350.985C255.274 352.088 255.156 352.849 255.736 353.926C256.658 355.633 257.542 357.511 255.419 359.165C255.076 359.441 254.734 360.308 254.905 360.57C257.318 364.208 253.125 368.449 255.986 372.06C256.355 372.52 256.237 373.465 255.604 374.017C255.169 374.384 254.866 374.699 255.142 375.356C257.001 379.742 257.028 384.902 255.261 388.96C255.129 389.262 254.892 389.721 255.011 389.918C257.252 393.608 255.749 397.823 256.698 401.697C256.869 402.393 256.329 402.577 255.815 402.787C255.327 402.984 255.076 403.483 255.432 403.837C258.28 406.739 256.711 410.219 256.817 413.489C256.962 417.835 255.419 422.181 256.896 426.567C257.502 428.366 258.043 430.309 257.423 432.292C257.08 433.408 256.751 434.459 254.444 434.524C257.159 435.746 256.777 436.757 256.527 438.766C256.131 442.009 255.142 444.136 252.572 445.804C252.4 445.922 252.295 446.25 252.268 446.487C251.886 450.597 249.368 452.501 245.11 451.897C244.583 451.818 243.871 451.542 243.541 451.779C242.342 452.658 241.326 453.354 239.784 452.278C237.345 450.584 234.076 448.443 234.55 445.843C235.051 443.138 231.966 440.026 235.381 437.794C233.324 435.627 235.684 433.395 235.302 431.137C234.92 428.931 235.526 426.738 236.251 424.453C236.791 422.759 236.501 420.343 236.699 418.229C236.791 417.257 236.014 416.167 237.49 415.603C237.833 415.471 237.741 414.972 237.517 414.657C235.394 411.545 236.185 408.302 236.989 405.019C237.161 404.349 237.24 403.561 237.055 402.918C236.409 400.646 236.501 398.624 238.663 397.18C237.793 396.248 237.029 398.02 236.436 397.048C235.935 396.247 236.449 395.565 237.068 394.961C237.78 394.252 237.174 393.451 237.161 392.689C237.121 391.179 237.029 389.59 238.874 388.973C239.402 388.802 239.995 388.828 239.916 388.093C239.85 387.502 239.375 387.148 238.809 387.121C236.554 387.016 236.976 385.979 238.018 384.824C238.716 384.049 238.189 383.786 237.873 383.025C236.989 380.95 236.238 378.783 236.62 376.301C236.989 373.964 237.385 371.469 236.211 369.184C237.358 368.318 237.609 370.209 238.611 369.762C238.888 368.738 237.886 367.976 237.464 367.635C236.08 366.545 236.211 365.56 237.095 364.418C237.701 363.63 237.965 362.947 237.213 362.067C236.963 361.779 236.91 361.214 236.95 360.807C237.53 355.187 237.451 349.593 236.567 344.012C236.119 341.189 236.963 338.34 236.291 335.503C236.08 334.61 236.185 333.376 237.648 334.637C237.978 334.926 238.347 334.847 238.571 334.558C238.861 334.177 238.795 333.757 238.466 333.363C236.963 331.472 237.108 329.319 238.281 327.533C239.389 325.852 238.387 324.539 238.308 323.055C238.149 319.996 238.11 316.936 238.11 313.877C238.11 312.997 237.965 312.169 237.833 311.303C236.976 305.591 236.739 299.839 237.016 294.075C237.095 292.525 237.53 291.357 239.428 290.766C241.313 290.175 240.18 289.085 239.191 288.324C238.215 287.575 236.528 287.431 236.989 285.487C237.253 284.384 235.763 282.113 238.888 283.189C239.771 283.491 240.311 282.086 239.586 281.574C238.453 280.786 236.989 280.484 237.741 278.62C235.434 278.502 235.948 276.781 236.33 275.639C237.213 272.986 237.807 270.15 237.24 267.59C236.818 265.659 238.123 263.703 236.752 261.917C236.436 261.51 236.37 260.459 236.66 260.131C238.756 257.833 236.594 255.719 236.488 253.539C236.462 253.132 236.027 252.66 236.752 252.581C237.451 252.502 238.453 252.699 237.727 251.596C237.358 251.031 236.699 250.099 235.539 250.966C234.524 251.727 233.548 253.132 231.861 251.806C231.413 251.452 231.004 252.318 231.083 252.843C231.36 254.761 229.567 253.946 229.079 254.012C227.577 254.222 228.697 253.237 228.75 252.712C228.763 252.541 228.723 252.371 228.671 252.2C228.42 251.215 226.364 250.9 227.247 249.745C228.526 248.077 230.108 246.488 231.914 245.477C232.784 244.978 234.102 244.558 235.341 244.492C236.383 244.426 237.068 243.783 236.897 242.746C236.198 238.688 237.292 234.67 237.029 230.639C236.91 228.892 235.645 227.133 237.978 225.899C238.228 225.767 238.044 225.203 237.688 225.019C236.91 224.599 236.91 225.912 235.987 225.649C236.475 224.415 235.262 222.747 237.2 221.88C237.556 221.723 237.424 221.46 237.279 221.237C234.603 217.377 236.238 213.463 237.227 209.603C237.398 208.96 237.095 208.671 237.002 208.211C236.146 203.891 234.287 199.65 236.541 195.159C237.147 193.938 236.436 192.257 235.289 191.824C234.445 191.495 233.601 192.716 233.601 193.977C233.601 194.437 233.285 195.028 232.929 195.343C229.04 198.77 226.931 203.392 224.347 207.712C223.622 208.92 222.237 210.22 220.945 210.509C219.311 210.864 218.783 211.98 218.23 212.991C216.977 215.302 214.789 216.983 213.985 219.569C213.734 220.344 213.009 220.817 212.139 220.948C211.493 221.04 210.742 221.211 210.702 221.92C210.557 224.782 207.868 225.229 206.273 226.713C204.928 227.973 203.636 229.3 202.489 230.744C200.762 232.911 198.89 234.591 196.214 235.76C194.421 236.548 193.327 238.925 191.956 240.618C191.415 241.301 191.099 242.168 189.939 242.05C188.924 241.945 188.713 242.785 188.344 243.52C186.959 246.33 185.035 248.747 182.385 250.48C181.686 250.939 181.001 251.373 180.697 252.108C178.76 256.743 173.526 258.319 171.034 262.429C170.942 262.574 170.757 262.757 170.626 262.744C166.354 262.639 165.062 266.723 162.281 268.706C159.552 270.649 156.955 272.934 155.083 275.797C154.344 276.913 152.973 275.613 152.538 276.689C151.233 279.972 147.661 279.998 145.34 281.797C145.169 281.929 144.418 281.666 144.642 282.086C146.105 284.844 142.097 285.067 142.269 287.286C142.308 287.798 141.807 287.838 140.278 286.643C137.47 289.269 135.769 292.788 131.841 294.469C128.44 295.926 125.394 298.224 121.888 299.616C121.163 299.905 119.528 300.378 120.306 302.124C120.609 302.794 119.726 303.332 119.357 303.923C117.933 306.182 115.138 307.232 114.149 309.924C113.596 311.421 111.447 309.11 110.603 311.211C110.352 311.841 108.784 313.68 107.07 312.314C106.569 313.417 105.237 313.404 104.46 314.349C103.616 315.387 102.456 316.962 100.518 315.82C99.9246 315.479 99.7401 314.008 98.7513 314.874C97.9735 315.557 99.3182 316.188 99.2259 317.212C97.3408 316.45 95.8247 317.054 94.3746 318.302C93.399 319.129 92.2521 318.984 91.1711 318.21C88.9431 316.621 86.6888 315.15 84.1445 313.995C82.2461 313.141 80.9542 310.896 80.6114 308.9C80.0841 305.775 79.2008 302.374 81.5342 299.459C82.4834 298.264 80.8092 297.857 80.9014 296.99C82.6548 296.294 85.5946 297.542 85.476 294.009C85.4496 293.405 86.2406 293.392 86.7679 293.326C87.4007 293.248 88.1653 293.195 88.1785 292.407C88.2312 288.639 91.3952 288.127 93.8736 287.549C95.4028 287.194 96.8266 286.827 97.7231 285.75C100.307 282.651 104.947 282.034 106.846 278.173C109.403 278.278 109.561 274.68 112.251 274.759C113.081 274.785 114.228 274.103 114.756 273.394C117.471 269.809 122.151 268.522 124.722 264.806C124.827 264.661 124.946 264.438 125.078 264.425C129.613 263.926 131.063 259.54 134.161 257.242C134.952 256.651 135.717 256.126 136.626 255.745C137.404 255.417 138.367 254.866 138.67 254.17C139.856 251.373 140.726 250.454 143.534 248.996C145.459 247.998 147.173 246.632 148.57 244.925C148.742 244.728 148.913 244.243 148.953 244.256C151.576 245.214 151.009 242.811 151.958 241.827C153.764 239.923 156.058 238.216 159.038 237.835C160.132 237.69 161.872 237.231 161.661 235.3C164.113 235.537 164.851 232.648 166.987 232.385C168.134 232.241 168.938 231.729 169.676 230.862C172.643 227.422 176.861 225.885 180.777 223.955C181.739 223.482 182.042 222.222 183.321 222.169C183.888 222.156 184.244 220.594 185.061 222.025C185.364 222.563 185.839 222.117 186.01 221.684C187.17 218.768 190.822 218.112 191.969 215.079C192.246 214.356 193.801 214.186 194.658 213.595C197.717 211.494 200.485 209.012 203.069 206.36C203.715 205.703 204.308 205.073 205.218 204.915C206.76 204.639 207.855 203.641 208.936 202.67C210.293 201.449 211.678 200.7 213.405 202.223C213.84 200.766 211.309 200.936 212.297 199.571C212.917 198.704 213.906 198.534 214.934 198.56C215.488 198.56 216.12 198.428 216.213 197.824C216.819 193.688 220.721 192.178 222.91 189.316C224.386 187.398 225.441 185.192 227.181 183.433C229.884 180.715 232.336 177.708 235.117 175.081C236.33 173.939 236.515 172.613 236.528 171.326C236.541 170.276 235.803 169.251 237.503 168.962C237.675 168.936 237.912 168.372 237.886 168.345C235.473 166.454 239.191 165.443 238.545 163.644C237.965 162.055 237.609 160.217 237.78 158.549C238.242 154.111 236.488 149.634 238.136 145.235C238.242 144.946 238.004 144.473 238.163 144.237C239.309 142.438 239.665 139.063 238.848 137.238C238.782 137.08 238.756 136.896 238.663 136.739C238.492 136.45 231.321 134.559 231.083 134.769C230.569 135.203 229.607 135.583 229.409 135.294C227.787 132.878 226.074 134.914 224.373 134.966C220.655 135.058 217.267 133.587 214.169 131.657C212.798 130.804 211.493 129.937 209.819 129.569L209.924 129.582ZM242.144 400.108C244.306 403.128 240.891 401.552 240.931 402.603C241.01 404.612 239.191 405.794 238.822 407.619C238.729 408.052 237.899 408.564 238.716 408.827C240.377 409.379 240.997 410.981 242.183 411.992C244.332 413.83 246.468 413.134 248.379 412.32C250.541 411.401 251.675 408.197 251.148 406.109C250.766 404.586 247.035 401.434 245.479 401.841C243.91 402.235 243.093 402.025 242.144 400.121V400.108ZM255.947 431.846C255.142 431.202 254.088 429.837 253.666 430.611C252.941 431.951 250.396 432.24 251.28 434.406C251.675 435.378 252.268 436.284 252.809 437.19C253.112 437.689 253.257 438.438 254.075 438.359C254.285 438.332 254.641 438.109 254.668 437.939C254.813 437.006 253.837 437.229 253.468 436.822C253.178 436.507 253.007 436.074 252.848 435.667C251.741 432.87 254.483 432.975 255.96 431.846H255.947ZM268.47 263.073C269.749 262.048 271.595 261.956 272.478 260.368C272.768 259.855 273.506 259.448 272.834 258.805C272.32 258.306 271.7 258.45 271.107 258.805C269.472 259.75 268.998 261.405 268.484 263.086L268.47 263.073ZM250.634 342.476C251.833 342.476 253.033 342.581 253.402 342.423C255.854 341.334 253.231 340.467 253.073 339.43C251.464 339.692 251.412 341.176 250.634 342.489V342.476ZM309.114 288.337C309.351 287.024 308.152 286.813 307.202 286.498C306.754 286.341 306.28 286.708 306.543 287.247C306.991 288.166 307.334 289.295 308.455 289.571C309.246 289.781 309.101 288.993 309.114 288.324V288.337ZM278.107 263.755C278.925 263.624 279.478 263.151 279.571 262.258C279.623 261.72 279.544 261.064 278.846 261.182C277.989 261.326 277.158 261.773 277.039 262.784C276.974 263.388 277.475 263.663 278.094 263.755H278.107Z" fill="white"/>
<path d="M89.4384 370.129C90.1108 369.407 90.8359 369.854 91.3632 369.604C92.4837 369.066 93.1693 370.93 94.2898 370.077C94.9358 369.591 93.7889 369.026 94.6194 368.002C95.7795 366.571 93.1824 367.648 92.6815 366.755C92.7342 366.571 92.7738 366.164 92.9056 366.125C96.1618 365.205 98.1393 361.975 100.921 360.951C104.77 359.533 106.497 356.184 109.437 354.057C111.111 352.849 113.498 352.626 114.552 350.512C114.816 349.986 115.264 350.21 115.515 350.735C115.673 351.076 116.24 351.365 116.332 351.129C117.255 348.686 119.839 349.304 121.552 348.384C126.443 345.758 129.805 341.517 133.72 337.853C134.287 337.315 134.749 336.461 135.592 337.512C136.963 339.245 137.596 337.538 137.623 336.803C137.715 334.807 138.427 333.704 140.523 333.56C141.802 333.468 141.367 332.023 142.079 331.327C143.819 329.62 145.717 328.32 147.945 327.362C150.147 326.416 151.755 324.827 152.981 322.7C153.456 321.873 153.956 319.339 155.868 321.689C156.224 322.122 156.659 321.715 157.002 321.426C157.555 320.954 157.582 320.468 157.252 319.785C156.184 317.579 157.753 317.251 159.348 317.146C159.836 317.119 160.627 317.54 160.799 317.041C161.721 314.467 164.16 313.719 166.124 312.379C167.219 311.644 166.362 310.081 167.39 309.32C168.142 309.359 168.418 309.989 168.867 310.396C169.157 310.646 169.513 310.764 169.776 310.396C169.921 310.213 170.04 309.819 169.934 309.661C168.273 307.022 170.804 306.588 172.123 305.617C172.967 305 173.889 304.684 174.351 303.516C174.759 302.505 175.419 300.732 177.132 302.518C177.436 302.833 178.002 302.767 178.332 302.386C178.464 302.242 178.503 301.822 178.398 301.691C176.315 299.301 179.664 298.802 180.072 297.239C180.309 296.294 181.957 296.189 183.183 297.791C182.01 294.941 183.065 294.311 185.161 293.576C185.952 293.3 187.547 291.855 187.929 290.516C188.509 288.52 189.933 287.758 191.673 287.273C191.99 287.181 192.412 287.338 192.596 286.971C194.481 283.215 197.619 280.248 200.928 277.201C202.773 275.494 204.026 272.96 205.924 271.148C207.796 269.349 209.563 267.484 211.936 266.105C212.99 265.488 215.416 264.582 215.601 262.14C215.64 261.575 216.906 257.754 219.569 260.814C220.412 261.785 220.465 260.512 220.637 259.868C221.296 257.439 221.704 254.878 224.908 254.274C226.2 254.025 226.899 254.393 227.848 255.771C225.567 255.338 223.946 255.364 225.158 258.03C225.62 259.041 223.932 259.212 223.985 260.262C224.341 261.063 226.45 259.816 225.87 261.47C225.501 262.521 224.75 264.149 223.089 263.729C221.507 263.322 221.533 263.768 221.652 265.121C221.77 266.486 220.782 267.734 219.727 268.43C216.853 270.307 215.746 274.234 211.936 274.956C211.804 274.982 211.593 275.205 211.619 275.297C212.608 279.946 208.244 281.469 206.096 284.082C204.263 286.314 202.286 288.559 200.19 290.621C199.359 291.435 199.003 291.868 198.014 290.582C197.026 289.295 196.09 289.518 194.916 291.186C193.994 292.486 193.11 293.602 192.913 295.191C192.833 295.808 192.675 296.635 193.282 296.911C196.34 298.329 193.862 299.563 192.952 300.18C190.961 301.533 189.986 303.673 188.364 305.249C186.4 307.153 184.95 309.543 182.617 311.105C181.905 311.578 181.153 312.327 180.916 313.101C179.848 316.62 177.198 317.92 173.599 318.367C174.153 319.575 174.113 320.297 173.362 321.637C171.556 324.906 168.682 327.086 166.705 329.962C165.426 331.826 163.29 333.297 162.842 336.081C162.526 338.037 160.693 340.164 159.124 341.609C157.503 343.106 157.134 345.194 155.446 346.704C152.862 349.015 149.606 350.499 147.457 353.256C144.873 356.565 142.593 360.124 139.771 363.223C137.109 366.151 134.775 369.355 132.099 372.217C130.543 373.898 129.225 375.815 127.511 377.352C127.089 377.732 126.667 377.824 126.153 377.982C124.598 378.481 123.438 379.137 122.62 380.989C121.724 383.011 119.931 384.876 118.323 386.464C115.343 389.419 112.812 393.109 108.58 394.514C105.561 395.512 101.857 397.074 99.2994 395.551C96.7682 394.028 93.6175 393.739 91.4818 391.415C89.2143 388.946 88.6475 386.018 88.3179 382.919C88.2124 381.934 88.5684 381.094 88.8057 380.175C89.2934 378.297 90.2953 376.209 88.6606 374.318C87.9751 373.53 88.397 373.136 89.1221 372.677C90.849 371.587 90.8359 371.548 89.3989 370.129H89.4384ZM182.946 300.075C182.986 299.537 182.511 298.775 181.628 298.828C180.6 298.894 179.874 299.708 179.756 300.771C179.637 301.887 180.534 302.032 181.338 302.137C182.603 302.308 182.762 301.389 182.946 300.062V300.075ZM135.777 342.935C133.114 342.594 132.521 344.301 132.231 346.323C133.246 345.075 135.698 345.351 135.777 342.935ZM92.6815 376.695C91.9828 376.774 91.4555 377.076 91.3764 377.811C91.2973 378.704 91.9169 379.059 92.6815 379.19C93.3934 379.308 93.9734 379.124 93.8943 378.258C93.8284 377.509 93.4725 376.918 92.6815 376.695Z" fill="white"/>
</svg>
